PathFileType	4	(X/Y/Z)	C:/Users/opensim2020/Desktop/walking_exp_matlab/subject03_walking08_straight_04.trc	
DataRate	CameraRate	NumFrames	NumMarkers	Units	OrigDataRate	OrigDataStartFrame	OrigNumFrames	
100.00	100.00	4	51	mm	100.00	3541	303	
Frame#	Time	LFHD			RFHD			LBHD			RBHD			C7			T10			CLAV			STRN			RBAK			LSHO			LUPA			LELB			LFRM			LWRA			LWRB			LFIN			RSHO			RUPA			RELB			RFRM			RWRA			RWRB			RFIN			LASI			RASI			LPSI			RPSI			LTHI			LKNE			LTIB			LANK			LHEE			LTOE			RTHI			RKNE			RTIB			RANK			RHEE			RTOE			*39			*40			*41			*42			*43			*44			*45			*46			*47			*48			*49			*50			
		X1	Y1	Z1	X2	Y2	Z2	X3	Y3	Z3	X4	Y4	Z4	X5	Y5	Z5	X6	Y6	Z6	X7	Y7	Z7	X8	Y8	Z8	X9	Y9	Z9	X10	Y10	Z10	X11	Y11	Z11	X12	Y12	Z12	X13	Y13	Z13	X14	Y14	Z14	X15	Y15	Z15	X16	Y16	Z16	X17	Y17	Z17	X18	Y18	Z18	X19	Y19	Z19	X20	Y20	Z20	X21	Y21	Z21	X22	Y22	Z22	X23	Y23	Z23	X24	Y24	Z24	X25	Y25	Z25	X26	Y26	Z26	X27	Y27	Z27	X28	Y28	Z28	X29	Y29	Z29	X30	Y30	Z30	X31	Y31	Z31	X32	Y32	Z32	X33	Y33	Z33	X34	Y34	Z34	X35	Y35	Z35	X36	Y36	Z36	X37	Y37	Z37	X38	Y38	Z38	X39	Y39	Z39	X40	Y40	Z40	X41	Y41	Z41	X42	Y42	Z42	X43	Y43	Z43	X44	Y44	Z44	X45	Y45	Z45	X46	Y46	Z46	X47	Y47	Z47	X48	Y48	Z48	X49	Y49	Z49	X50	Y50	Z50	X51	Y51	Z51	

190	1.890	1505.25549	-169.76575	1601.96924	1373.08582	-158.67212	1611.84497	1508.05420	-43.07112	1554.28528	1377.53979	-36.63614	1564.06860	1453.80029	-7.43633	1404.35193	1448.30981	32.75950	1090.94934	1441.55334	-126.37194	1323.34412	1448.44263	-166.06871	1158.22083	1366.63123	59.52305	1228.08752	1599.13574	-99.14656	1363.58032	1677.93201	-125.65627	1175.79163	1693.68188	-163.88570	1060.22144	1683.77869	-238.95889	955.92902	1642.41553	-304.59402	861.80090	1694.46399	-286.88971	852.94281	1678.86121	-340.86362	791.31677	1286.19653	-64.44966	1345.00000	1221.78967	-45.46457	1120.23779	1210.24976	-54.40061	1007.52277	1210.39746	-64.33643	870.81519	1243.36389	-96.57986	775.65527	1205.53406	-57.69093	770.38513	1213.55286	-80.39526	699.81860	1572.09644	-125.78160	928.67603	1332.35645	-136.47699	922.41675	1510.87805	33.36658	952.81494	1362.65588	25.23317	950.11847	1598.13342	-30.17634	633.02014	1557.35132	0.93412	457.42261	1551.98694	97.94672	283.91422	1504.71301	169.19739	85.28646	1467.26318	216.50388	58.60394	1476.83105	24.12936	33.84080	1287.94324	-140.29939	629.02399	1330.47998	-220.12735	469.32285	1330.13513	-242.25290	285.79660	1375.62451	-308.36929	78.60390	1435.35327	-284.64838	38.97208	1377.40332	-454.08640	78.66299																																				 
191	1.900	1505.03162	-178.36798	1601.41028	1372.89453	-167.35287	1611.30334	1507.72205	-51.50020	1553.73669	1377.08630	-45.31619	1563.56873	1452.97253	-15.93237	1403.76672	1447.33899	24.00615	1090.32166	1441.10840	-134.78922	1322.67737	1448.37756	-174.75037	1157.73328	1365.49365	50.48957	1227.59692	1598.82568	-107.01638	1363.09265	1677.18323	-132.44618	1174.88928	1692.83716	-169.93448	1059.10095	1683.05286	-244.82191	954.52765	1641.82471	-310.29935	860.49414	1693.77795	-292.41815	851.53357	1678.17773	-346.17032	789.73132	1285.62341	-73.80051	1344.48682	1221.41577	-54.55165	1119.71277	1210.14600	-62.78975	1006.97626	1210.40857	-72.26865	870.14459	1243.56970	-104.15791	774.94867	1205.49976	-64.89766	769.77753	1214.03979	-87.46746	699.15558	1571.98621	-134.04140	928.12628	1332.31421	-145.90787	921.77179	1509.93982	24.80319	952.35736	1361.78235	15.99500	949.69562	1598.21558	-36.90272	632.88660	1557.73230	-4.66467	457.28473	1552.21729	94.59803	284.86823	1504.75830	168.46204	87.20968	1467.43237	215.99232	61.15606	1476.88306	24.03437	33.78344	1288.25464	-148.99042	628.30133	1331.10876	-227.79561	468.15115	1330.88000	-249.70682	284.73038	1376.89282	-315.62042	77.36749	1436.40820	-291.74768	37.88884	1378.47144	-461.26422	77.13437																																				 
192	1.910	1504.82495	-186.78928	1600.99463	1372.64526	-176.12373	1610.90845	1507.19153	-60.02133	1553.32202	1376.55884	-54.06094	1563.14075	1452.12683	-24.54617	1403.25696	1446.37573	15.02326	1089.78101	1440.85083	-143.58054	1322.31726	1448.29797	-183.60004	1157.34717	1364.34485	41.35110	1227.11389	1598.46460	-114.84719	1362.68494	1676.47900	-139.17703	1174.06885	1692.01587	-175.88290	1058.04370	1682.38879	-250.33089	953.17303	1641.20349	-315.47104	858.84283	1693.10071	-297.45239	849.93146	1677.55835	-350.99612	787.90594	1285.08313	-83.33134	1344.12671	1220.94604	-63.77061	1119.27100	1209.89294	-71.55245	1006.45593	1210.38525	-80.48322	869.61743	1243.88745	-111.41863	774.20465	1205.50757	-72.54613	769.19867	1214.29321	-94.71571	698.33142	1571.79773	-142.56516	927.61804	1332.24915	-155.55385	921.23114	1509.09985	16.00741	951.93335	1360.90649	6.48507	949.26044	1598.18811	-43.78553	632.77899	1558.13733	-10.41188	457.30322	1552.44202	90.95005	285.92007	1505.40088	167.30319	88.97910	1467.65063	215.22725	63.93658	1476.96729	23.91666	33.73714	1288.63025	-157.86856	627.69666	1331.79004	-235.50229	467.02527	1331.54138	-256.59146	283.55411	1377.77417	-321.21436	75.85453	1437.08203	-296.70233	36.46053	1380.09448	-466.79663	74.67127																																				 
193	1.920	1504.66455	-195.18323	1600.66455	1372.38452	-184.93410	1610.56580	1506.71521	-68.53808	1553.00415	1376.06287	-62.88257	1562.82642	1451.23608	-33.06087	1402.94678	1445.38428	5.84304	1089.25952	1440.55798	-152.43974	1321.99890	1448.19861	-192.60170	1157.10645	1363.09143	32.01826	1226.54639	1598.04016	-122.66202	1362.34363	1675.79126	-145.82652	1173.34656	1691.17773	-181.67465	1057.00293	1681.72986	-255.59659	951.75995	1640.75903	-320.53629	857.26495	1692.48669	-302.12643	848.24109	1677.04297	-355.34958	785.91754	1284.41248	-93.00787	1343.74670	1220.46912	-73.22014	1118.88281	1209.63843	-80.59315	1006.02802	1210.29199	-88.93053	869.16760	1244.05432	-119.30800	773.52539	1205.74988	-80.84091	768.76563	1214.57336	-102.19310	697.67004	1571.72949	-151.30508	927.17004	1332.17700	-165.39960	920.73047	1508.14246	6.81341	951.58569	1360.02771	-3.24373	948.98059	1598.18445	-50.95984	632.70361	1558.50916	-16.62868	457.30508	1552.84814	87.17791	287.04077	1505.35291	166.13828	91.24153	1467.81165	214.36810	66.82864	1477.10767	23.55212	33.74329	1288.81763	-166.96255	627.18555	1332.37646	-243.38016	466.01163	1332.10168	-262.74826	282.18396	1378.75085	-325.07388	73.84932	1437.45605	-299.42459	35.32407	1381.99475	-470.44177	71.20174																																				 
